<mxfile host="app.diagrams.net" modified="2023-09-01T05:25:14.455Z" agent="Mozilla/5.0 (Windows NT 10.0; Win64; x64) AppleWebKit/537.36 (KHTML, like Gecko) Chrome/118.0.0.0 Safari/537.36" version="21.7.1" etag="ph956kMi7ALkfD6BuNTr" type="github">
  <diagram name="Page-1" id="MwI8E1tHZ0TYZ93VypCQ">
    <mxGraphModel>
      <root>
        <mxCell id="0" />
        <mxCell id="1" parent="0" />
      </root>
    </mxGraphModel>
  </diagram>
</mxfile>
